<mxfile host="app.diagrams.net" modified="2024-01-30T17:27:38.480Z" agent="Mozilla/5.0 (Windows NT 10.0; Win64; x64) AppleWebKit/537.36 (KHTML, like Gecko) Chrome/120.0.0.0 Safari/537.36 OPR/106.0.0.0" etag="rREaAh1k75yNoED9fhQ6" version="23.0.2" type="github">
  <diagram name="Page-1" id="2YBvvXClWsGukQMizWep">
    <mxGraphModel dx="1048" dy="559" grid="1" gridSize="10" guides="1" tooltips="1" connect="1" arrows="1" fold="1" page="1" pageScale="1" pageWidth="850" pageHeight="1100" math="0" shadow="0">
      <root>
        <mxCell id="0" />
        <mxCell id="1" parent="0" />
        <mxCell id="eXJxp_DUheLdAVC19qgq-13" value="" style="rounded=0;whiteSpace=wrap;html=1;" parent="1" vertex="1">
          <mxGeometry x="80" y="472" width="211" height="142" as="geometry" />
        </mxCell>
        <mxCell id="eXJxp_DUheLdAVC19qgq-3" value="&lt;h1&gt;&lt;font style=&quot;font-size: 20px;&quot;&gt;Device&lt;/font&gt;&lt;/h1&gt;" style="text;html=1;strokeColor=none;fillColor=none;spacing=5;spacingTop=-20;whiteSpace=wrap;overflow=hidden;rounded=0;" parent="1" vertex="1">
          <mxGeometry x="225" y="439" width="90" height="40" as="geometry" />
        </mxCell>
        <mxCell id="eXJxp_DUheLdAVC19qgq-7" value="Microcontroller" style="rounded=1;whiteSpace=wrap;html=1;" parent="1" vertex="1">
          <mxGeometry x="83" y="521" width="100" height="44" as="geometry" />
        </mxCell>
        <mxCell id="eXJxp_DUheLdAVC19qgq-8" value="Battery system" style="rounded=1;whiteSpace=wrap;html=1;" parent="1" vertex="1">
          <mxGeometry x="83" y="567" width="100" height="44" as="geometry" />
        </mxCell>
        <mxCell id="eXJxp_DUheLdAVC19qgq-21" value="&lt;h1&gt;&lt;br&gt;&lt;/h1&gt;" style="text;html=1;strokeColor=none;fillColor=none;spacing=5;spacingTop=-20;whiteSpace=wrap;overflow=hidden;rounded=0;" parent="1" vertex="1">
          <mxGeometry x="141" y="290" width="126" height="40" as="geometry" />
        </mxCell>
        <mxCell id="eXJxp_DUheLdAVC19qgq-27" value="&lt;h1&gt;&lt;br&gt;&lt;/h1&gt;" style="text;html=1;strokeColor=none;fillColor=none;spacing=5;spacingTop=-20;whiteSpace=wrap;overflow=hidden;rounded=0;perimeterSpacing=0;" parent="1" vertex="1">
          <mxGeometry x="241" y="20" width="126" height="40" as="geometry" />
        </mxCell>
        <mxCell id="kGlO1bPiPn4Se3NQ1fFB-7" value="Sensors" style="rounded=1;whiteSpace=wrap;html=1;" vertex="1" parent="1">
          <mxGeometry x="83" y="475" width="100" height="44" as="geometry" />
        </mxCell>
        <mxCell id="kGlO1bPiPn4Se3NQ1fFB-9" value="LoRa module" style="rounded=1;whiteSpace=wrap;html=1;" vertex="1" parent="1">
          <mxGeometry x="188" y="521" width="100" height="44" as="geometry" />
        </mxCell>
        <mxCell id="kGlO1bPiPn4Se3NQ1fFB-10" value="Switch On/Off" style="rounded=1;whiteSpace=wrap;html=1;" vertex="1" parent="1">
          <mxGeometry x="188" y="567" width="100" height="44" as="geometry" />
        </mxCell>
        <mxCell id="kGlO1bPiPn4Se3NQ1fFB-11" value="Solar panel" style="rounded=1;whiteSpace=wrap;html=1;" vertex="1" parent="1">
          <mxGeometry x="188" y="475" width="100" height="44" as="geometry" />
        </mxCell>
        <mxCell id="kGlO1bPiPn4Se3NQ1fFB-13" value="" style="rounded=0;whiteSpace=wrap;html=1;" vertex="1" parent="1">
          <mxGeometry x="369" y="495" width="211" height="96" as="geometry" />
        </mxCell>
        <mxCell id="kGlO1bPiPn4Se3NQ1fFB-14" value="&lt;h1 style=&quot;border-color: var(--border-color);&quot;&gt;&lt;font style=&quot;font-size: 20px;&quot;&gt;Gateway&lt;/font&gt;&lt;/h1&gt;" style="text;html=1;strokeColor=none;fillColor=none;spacing=5;spacingTop=-20;whiteSpace=wrap;overflow=hidden;rounded=0;" vertex="1" parent="1">
          <mxGeometry x="495" y="461" width="105" height="40" as="geometry" />
        </mxCell>
        <mxCell id="kGlO1bPiPn4Se3NQ1fFB-15" value="Microcontroller" style="rounded=1;whiteSpace=wrap;html=1;" vertex="1" parent="1">
          <mxGeometry x="372" y="544" width="100" height="44" as="geometry" />
        </mxCell>
        <mxCell id="kGlO1bPiPn4Se3NQ1fFB-17" value="LoRa module" style="rounded=1;whiteSpace=wrap;html=1;" vertex="1" parent="1">
          <mxGeometry x="372" y="498" width="100" height="44" as="geometry" />
        </mxCell>
        <mxCell id="kGlO1bPiPn4Se3NQ1fFB-18" value="Power system" style="rounded=1;whiteSpace=wrap;html=1;" vertex="1" parent="1">
          <mxGeometry x="477" y="544" width="100" height="44" as="geometry" />
        </mxCell>
        <mxCell id="kGlO1bPiPn4Se3NQ1fFB-20" value="Wi-Fi connection" style="rounded=1;whiteSpace=wrap;html=1;" vertex="1" parent="1">
          <mxGeometry x="477" y="498" width="100" height="44" as="geometry" />
        </mxCell>
        <mxCell id="kGlO1bPiPn4Se3NQ1fFB-21" value="" style="shape=image;verticalLabelPosition=bottom;labelBackgroundColor=default;verticalAlign=top;aspect=fixed;imageAspect=0;image=data:image/png,iVBORw0KGgoAAAANSUhEUgAAAgAAAAIACAYAAAD0eNT6AAAACXBIWXMAAAsTAAALEwEAmpwYAAAgAElEQVR4nO3dCZwkRZX48deZVV3V3TPTMzDDOAMMwyE3yDECtoriLYo3ruuNtyICHguKCru6KoiItyjrsagoK963eKwgnnihrKyL63pyyn3IMf5fUD38e3q6qzKzIjNeRP/i83mfXabsb8TLyIyXVZWVKQ960P1HNdoaUqW5v5v++9EZgYeHh4eHh2fZSyoZPDw8PDw8vOJIsM7x8PDw8PDwgnpBO8fDw8PDw8Nr3gvaOR4eHh4eHl7zXtDO8fDw8PDw8MJ4QTvHw8PDw8PDC+MF7RwPDw8PDw8vjBe0czw8PDw8PLwwXtDO8fDw8PDw8MJ4SSWDh4eHh4eHV8xLKhk8PDw8PDy8il5SyeDh4eHh4eFR/PHw8PDw8PAsdY6Hh4eHh4dH8cfDw8PDw8Or2UsqGTw8PDw8PLxiXlLJ4OHh4eHh4RXzkkoGDw8PDw8Pr5iXVDJ4eHh4eHh4xbykksHDw8PDw8MrDKSTDB4eHh4eHl5xJFjneHh4eHh4eEG9oJ3j4eHh4eHhNe8F7RwPDw8PDw+veS9o53h4eHh4eHhhvKCd4+Hh4eHh4YXxgnaOh4eHh4eHF8YL2jkeHh4eHh5eGC9o53h4eHh4eHhhvKSSwcPDw8PDwyvmJZUMHh4eHh4eXkUvqWTw8PDw8PDwKP54eHh4eHh4ljrHw8PDw8PDo/jj4eHh4eHh1ewllQweHh4eHh5eMS+pZPDw8PDw8PCKeUklg4eHh4eHh1fMSyoZPDw8PDw8vGJeUsng4eHh4eHhFQbSSQYPDw8PDw+vOBKsczw8PDw8PLygXtDO8fDw8PDw8Jr3gnaOh4eHh4eH17wXtHM8PDw8PDy8MF7QzvHw8PDw8PDCeEE7x8PDw8PDwwvjBe0cDw8PDw8PL4wXtHM8PDw8PDy8MF5SyeDh4eHh4eEV85JKBg8PDw8PD6+il1QyeHh4eHh4eBR/PDw8PDw8PEud4+Hh4eHh4VH88fDw8PDw8Gr2kkoGDw8PDw8Pr5iXVDJ4eHh4eHh4xbykksHDw8PDw8Mr5iWVDB4eHh4eHl4xL6lk8PDw8PDw8AoD6SSDh4eHh4eHVxwJ1jkeHh4eHh5eUC9o53h4eHh4eHjNe0E7x8PDw8PDw2veC9o5Hh4eHh4eXhgvaOd4eHh4eHh4YbygnePh4eHh4eGF8YJ2joeHh4eHhxfGC9o5Hh4eHh4eXhgvqWTw8PDw8PDwinlJJYOHh4eHh4dX0UsqGTw8PDw8PDyK/wL0dtF4rsarNJ6S5/lmxsaHh4eHhxfaSyqZhem1NO6pcbTGpzUu1/j7zBgZGblhfHx850TyxcPDw8Mb1ksqmYXlbaPxAo3PaFwvswq+bFz8XfzvqlUrl0WcLx4eHh6eLy+pZNL3co0HaLxF4yLpU/Bl0+L/h7Gxsd0iyxcPDw8Pry4vqWQS9bR476Mvv0PjL1Kw6MuM4p9l2Y+WLFm8JpZ88fDw8PAa8JJKJiFvamr/TqvVOlRfOl9KFn3ZuPh/cqutVk9azxcPDw8Pr2EvqWQS8bQdqMX7PKlY+KVX/G/N8/x169bt3bWeLx4eHh5eAC+pZCL3xsa6e+o79i+5d+4yXPG/uNPp7B8w30UaB2ocpXG6xpek98uEE7rd7mgs84GHh4eXtJdUMpF6e+6525i+W3+lFu6bhyz+6/UE4vSVK7fYrOF8F2scrHGixvc1bptnfDctW7Z0C+vzgYeHh7cgvKSSidDTd/17aNH+/vSV+sMU//9ut3U4zeQ76v4nGidp/FDmL/gbheb5L9bnAw8PD2+heUE7X6heq9U6TIv+TUMW/1s13rDVVqsX15nvokUTa6V3V8FPyYB7DswVWTbyNfdJh+X5wMPDw1toXtDOF6K3++67dvM8O2VD4R+i+F8xMiL3qSvfbrezr47zTTq+n1cc313Ff8YvEczNBx4eHt5C9IJ2vhC9zTZbtiLLsq94KP5X6t/u6Xt8ExPj2+V5/iot2hd6+FrCfex/xpo1Wy2xOh94eHh4C9UL2vlC89wFcFpYf+Kh+F/tbg7kcXyjGk/Wsf2nund4GJ+Ly1qt/GmW5wMPDw9vIXtBO19IXu+d/8gFHorr7RoP9zS+LTSO1/jzzHENOb6bNU5dunRypeX5wMPDw1voXtDOF4q3+ebLlrvb8Xp6Z32sh/Fto/FOjZuc6an4X6dxqp7kbG19PvDw8PDwBpwAxJaMRW9qar9RLf6f81T8P+G8IcY3pvEvGrdsMD0U/99J7xHES2KYDzw8PDy8AScAMSZj0XMX1Hkq/j9fuXKLpUOM7z4av51pDln8L9R4qka7zu2Hh4eHh1ePl1Qy1rzR0dEHalG9zUPx/1un09m74vhGNI6U3v0CfBT/K6e9vO7th4eHh4fXoJdUMgG9zTZbtlKL6p89FH/3U7q3VhzfCundh38jr2LxdxcfvlVjsonth4eHh4dH8Y/S06L9YR/FX//++qVLJ1dXGN9BGn+aw6tS/C/SOKBfvtbnAw8PDw+P4l+71263H66Fdb2H4u/e/b+j5PhaGq/TuGMur2Txd4Z7wE+nye2Hh4eHh0fxj85btWrlMi2sl/go/hq3j4+P71RifNtqnNvHK1P8/6Lx4EH5Wp8PPDw8PDyKfyPehnv8y/DF3737/1TB8bkL/V4s8zykp0LxP0d6NwlqfPvh4eHh4TXkJZVMYK/b7e6jxXWjq+3LxswiPTo6et8C43Pv+r9RxCtY/E+T6Z/2Nb398PDw8PAa9JJKJqC3bt3eXS2u3xNPxd89M2DA+NzP8I7SuLGIV6D4O+dJobYfHh4eHl7DXlLJBPTyPH+BeCr+LtR7YZ/x7a3xgzLegOL/e411IbcfHh4eHl7DXlLJBPIWL160tb50lXgq/u6nf61Wa/Ec3S+V3j38N7nCf4DXr393IrEi5PbDw8PDwwvgJZVMIE9f+oz4K/7u3983q+tM41nSuzK/ijdffFFjIvT2w8PDw8ML4CWVTABPevfD91n8Xcz8OP4BGj8Z0psrviy9ewYE3X54eHh4eGG9oJ3H6mmB3V16j8H1Wfxv1vgn6d3M50IP3lxxrcbK0NsPDw8PDy+sF7TzWL0sy9z35hs9Xa9oDPkUPh/eK0NvPzw8PDy8sF7QzmP1xsfH3Ef/35Q4i7+7WHGuCwyjnQ88PDw8vPJe0M5j9NauXePuuvdBibP4u3hNyO2Hh4eHh2fDC9p5pN5JEm/xd9/9Lwu8/fDw8PDwDHhBO4/QO17iLf4u3hh4++Hh4eHhGfGCdh6Zd6TEXfzdrwvuFnD74eHh4eEZ8pJKpkbvURrrJd7i7+K0gNsPDw8PD8+Yl1QyNXmbaVwqcRd/d+vgHQNtPzw8PDy8GLykkvHjnShxF38XZwbcfnh4eHh41r2kkvHjrZI+j9udKwwW/9s1dg60/fDw8PDwrHtJJePPe6/EXfxdfCDg9sPDw8PDs+wllYw/bz8Z8Nhd8V+sfXvuwsXtE5kPPDw8PDyfXlLJ+PPchX+XSNzF38VvE5kPPDw8PDzfXlLJ+PHGNL4t8Rd/F99MYD7w8PDw8OrwkkpmeM/9LvILkkbx/3uWZZ+LfD7w8PDw8OrykkpmeM/dLCeJ4u/+Xk8Azol8PvDw8PDw6vKSSmY4b08peNFfDMW/dwIw8vOI5wMPDw8Pr04vqWSG8z4nCRX/6bh6amq/0UjnAw8PDw+vTi+pZKp7O0iBd/+RFf8N3n0b2H54eHh4eJF6QTs34J0iNop1Hd65GlnN2w8PDw8PL0IvaOcGvHGNv4qNYl2Xd1yN2w8PDw8PL0IvaOdGvOeLrWJdh3ebFPgqwMh84OHh4eE14AXt3Ij3E7FVrOvy3CONt6xh++Hh4eHhRegF7dyANyU2i3Vd3nnSu9mRr+03Z8PDw8PDs+8F7dyA9xGxW6zr8l7rcftt0vDw8PDw4vCCdh7YW65xi9gu1nV4LuedPGy/TRoeHh4eXjxeUsmU9P5J7BfrurxzJyeX5MbmAw8PDw+vQS+pZEp4LZn1uF/DxboWL8uyD05N7d8xMh94eHh4eKG9pJKZv71AIirWdXl6EvCRtWvXLDYwH3h4eHh4FP/avUmNyySyYl2jd56eCKwoswE3NKPzi4eHh4dH8Z+zvUfiLdZ1eb/V2K3MRjQ8v3h4eHh4FP9Nmvvd/50P/Ym4WNflXaNxaJGNaHh+8fDw8PAo/ps0d+HfzySNYl2nd5bGsgbmAw8PDw8vpJdUMv3b0RK+uMbi/U7jfjXPBx4eHh5eSC+pZOZvW2hca6S4xuLdrvFGjdEa5gMPDw8PL7SXVDLztzcbK64xeRdq3N/y/OLh4eHhVfCSSmaOlmXZci1+1xstrtF4uh2/sGjRxPbW5hcPDw8Pr6KXVDJzeFq4TrZeXCPyrs/z/JXdbne06nxY31/w8PDwFoyXVDKzvKVLJ1dq0boukuIak/drjYeVnQ/r+wseHh7eQvSCdl6Xp+9W3xBhcY3J+6HG4zSyIvNhfX/Bw8PDW2he0M7r8iYmxnfUonVTxMU1Js99IvB86d1mec75sL6/4OHh4S00L2jndXpZln0+keIak3ez9G4kdIhGK6b9BQ8PD2+heUE7r8sbHW0/xEAxXOje7/Uk7K06Gfdft27vruX9BQ8PD28hekE7r8vTwvMVY8VwoXt/0Tl5n/77Q2T6xkLDzK/1/Q8PDw8vBi9o53V4nU7nXlpw1ovdYrjQvRs1vq5xjMa+ZefX+v6Hh4eHF4sXtPM6vCwb+arEUwzxRP5H4zSNp2msHTS/1vc/PDw8vFi8pJJpt9sPkLiLIZ7IHzXO1Di80+nsM+P6gbr3v+UaO0nvUwkXd9fYTnrPkRir4PkeHx4eHp5XL5lkdt757m6RvvNxv1XCaDHEGxm5JsuyL+V5dpybeukV5FJt9v4yPj62S57nh+lL79b4vsZ1BcZ0q8ZVGpdo/DDLRr6k4zpDx3WKuzuixrP13x+pcYDGthqLqo4vhuMNDw8vQS/WZPSlI8Ve8cKrx7tUetcRvEXjmRr7aIzPsbuM6t/u2Gq1HqMF+gQt2J/T/76swXxv0vi9xo81vqTxbxr/rPE86Z0s3EPHtCLG4w0PDy8xL9ZkdBFdpS9fK3EUL7z6PFdw/zQdf9VYb2x883k3a1ys+/FXNd6r//4KjSdI78RmmRRssR6/eHh4FP9hvI+IncUcD8+392fpfeJxqsZzNaY0FsuMFvnxi4eHR/Gv5B2kUfpnfwkVB7yF6d2m8T2NN2o8ZNWqlZORHr94eHgU/0reqMZFEv9ijoc3rHdTlmXn5Hn+0kWLJtZGcvzi4eGF9CJPxt1MxsLii4dnybtDek9q/FeN+0vBuy8GX4zw8PCa9SJOZo3GDWJv8cXDs+a54+SLGkdp7KYxIrOaicUIbxjPPYlzG417SO8+Fg90jMZjNQ514X4N456T0ul09l+xYvnyyPPt29auXTMyNtbdtd1uPzbP85dlWfZOjU/oS9/Q+Kn0fs7r4tLp/+tuSOa+UvukxvEau8eUb2Uv0mRyjW9JHIsvHp417zKN/9A4XGM3t1iaWIzw7mxasDbrdjt7jI6OHtRutw7V/35xnmcn6Etv1/iYxjkaF0ivcN35axcpv7+4T4l+pfFBjadI70ZYQfL16G2t8XIN9yyYq4c83tw2/bzGfobzHd6LNJm3SbyLLx6eNe9yfXd0thaaI7vd7t5TU/uNRrYexOJ1pHe76/to/IP0PpFx97JwRf070nsXenOg/cWdELibYr1Wep8SWdx+8zV3862vTOfg/fjQY+OL7lMTQ/n68yJM5mRJa/HFw7PmXSG9j0KP0NhD5vjKYK5mbnFr0Fu7ds3isbGx3fQd+yP0pedI72Nk9wTML0jvDqXuUxcr81skLtR4jfRuj1379qvo7SW9d+lNbL/1eiLw6W63s6fF/a+yF1EybhFyv4O2tlji4aXuuROCszVeorGnRiazmsnFzb/nbsrk3m0+XcPdWfIMjXN1u/1B446I53dQuO/MX6knODsZmY+tpPe8kI2++mho+7lbgp+kMdFgvrV7QTsv4Lnv/D8gaRxMeHixe+6um1+W3jtE9z31hOXFraTXkt6DoA6R3vfJ75fex/OXi935aMzLspEf53l+bKCfmrqvUF4pc1z8HWD7/Vpj75rzbcQL2nkBb1R6FywF3/nx8PDm9G7Td8I/0nh7q9X6Ry0O21hZ3ObztIhteDfvHgrlbqb0KendU+RvBfK1Ph9NeLdL7/kWT5ReYR5qPgrM78Ea/21s+90ivV9Y1JFvI17Qzgt47mN/ij8eXnzebzXO0HiB9K4j2ORrg9nN9/rinhEyOto+UE9KnjH9MKgP6fg2eTdvdPvF5LmnZL5Des+umLdVnN9tND5tLN+Z4U6EDvOYr+/t19cL2nkBz10pa33nx8PDG+xdI713jCdI793cCpnRKqwv7oTCPQTsnhqP0ThaekXIXXTnft4W6mr6he79XHq/btjoZ4UV5td98us+7r/ReL4u3HUB9x4y376tLi9o5wM89+7fHcgx7fx4eHjFw31K4C7mOlbfpT9ubKy7h7uSvtPpHNButx+m//44jWe416X3G3j3TtDdrOWP0nsWQmz5LiTvZundY2CfCvXDzfvFkeXr9sk7H9AVS/F3TtDOB3juH2Ld+fHw8PDwet55eoL35F133Wm8z3rvPtFxdy78bsT5nhRT8R94AhA4mY9LGjs/Hh4eHt7IyB+yLHu99J7guoPGLtK7iNDd2+X/DIxvWO9v3W53t1iKf98TgMDF331/xNW4eHh4eHjReHqC85VYiv+D5rsGwMDHGC+SBHYGPDw8PLyF5bXbrcfFUPzn9AwUf9f6fg8U086Ah4eHh2fWu03DXcC34emA13gY3/+Mjo52pUKj+ItsJ32ebhXZzoWHh4eHV793tfSekujuPXGaxns03jQrjsnz/LB2u/3Ibre7z+Tkkq3mefDVIo0p6T0Lwz1Gu8pPEY+bjQ5qFP9ee7XY27nw8PDw8Ox47i58X5PePQd2lgEPrBqyvrkTAndDqwtLjM/drnjrIriH8Q3nGSr+rv2XhN+58PDw8PBseX/VOF3j0VLiYTwe65s7yXimxl8K5vvxhsdX3jNW/HeVdHZWPDw8PLzhvJuyLPuE9Ip+4WcObGh11LfNN1+2XMf0+YL53q/p8ZXyDBV/154tce+seHh4eHjDe/+d5/lLVqzYfLOA9Wheb926vbt5np1YIN8LZJ7nYAQv/tN/ZKX4u+Yu1IhxZ8XDw8PD8+Bp4X+jK7AG6tFAT3pvWvvellrjKaHGN9AzVPxde59EtrPi4eHh4Xnzrlm9etVSI/WoqOeeW3Fdn/zcMy86Jbzm8jVU/F07S+LaWfHw8PDwPHlZln3KUD0q4+2t8ac+eR4deHzzAmY2travxLSz4uHh4eH58/I8O85KPargbalxnsyd65V5nk+aKv4bkGCdz/JmX1lpfWfFw8PDw/PqPV4qNAPFf0Nz1wW8VebIV09uXmNgfMO3uja2ngCcGdnOioeHh4fnz7u/lGyGiv/MdqjMuC5gOsfLV61auczI+Kq1Oje2ngC8L7KdFQ8PDw/Pn3dPKdGMFv8NzT3u+KKZeeZ5fpSh8YXtfLanG+fYyHZWPDw8PDx/3n2kYDNe/O/03H0M3IWNG3LV//8zlsYXtPPZXqfT2Vfi2lnnits1LtJwd696ncaLNR49MiL3Gh0d3V9zPKDdbj9KT3aO1p3hI9P/2zsizhcPDw/Pl+d+UjewxVD8N3junga61n9wOt9CtwduanxBO5/HO1Xi2Vld/EHjY9Ir9Os0NnkMZIHtt1h6t4x8ucZnNK40nC8eHh5eXZ576E7fFlPx3xBr1mztHij0dY2DLI0vaOfzeLnGKWJ7Z3W3d3ytxj1q2n7uoRO7a7xI41Ma1wfOFw8PD68J72Tp02Is/pa9oJ0P8E4SOzuru9Wje9a0ez70mpry7dfcRD1Q42Qdz38ldLDj4eHhzYzzZZ4WW3GNwbOczDLpf3vFunfW67Is+6T++1Onx1J3voW9bre7T55nb9Ix/tZjviksHnh4eHF7t8ocj/o1UI+S9Kwnc7g0u7P+rxb9d7Xb7YPddzbWJ2/t2jXuq4IDNN6mcXWFfEMf7Hh4eHiz4x9kRjNUj9L3DCbjiltdO+sNGl93t59076qN5FvVcxeZuGsGfj1PrlYPdjw8PLyZ8TmZbgbrUbqe4WSO1Vgvw+9c7op9t3O9QuOARYsmWkbzHcZznwq4n9J8WeI42PHw8PBmxt80Njeyni4Mz3oyIyNyb92Zvl9g53K/w79EegXQfXrwfOndXGJpTPl68vaX3k9PLB/seHh4eLPjBQbX0zS9WJKZmtq/Mzo6el93E508z06Q3k/x3HUCT5LeVfLu1oudPlSt47PqaXuoHowXGz7Y8fDw8GZ651ldT5PykkoGb15v++23XaQnTsfrgfU3gwc7Hh4e3kxv/cTExA5W19NkvKSSwRvodTqdvfSln4mtgx0PDw9vI0ffsBxnfT2N3ksqGbyinrtd8Rli6GDHw8PDmxW/imQ9jddLKhm8Mp77tcAJYudgx8PDw5vtDbzd+uyWyPrcjJdUMnhVPPfwjb5PI4x48cDDw4vbe4uUaAbW07i8pJLBq+o9VuMWCX+w4+Hh4c2MyzQKPbbW0Hoaj5dUMnjDeO5nlDx1EA8Pz5r3KBnQDK6nUXlBO8cz4+2ncaWktXjg4eHF7Z0tfZrh9TQKL2jneLY8PRB30/hTQosHHh5e3J67NfAKmaNZX0+te0E7x7PpTUyM76gH5W8SWTzw8PDi914is1os66llL2jneHa9xYsXbaMH5y8ljcUDDw8vbu8nMqPFtp5a9YJ2jmfby/N8mb78I4l/8cDDw4vfu/OeALGupxa9oJ3jReG5pyj+QOJfPPDw8OL2TklgPTXlBe0cLxpvUuN7EvfigYeHF7d32Q47bDeewHpqxksqGbxavUUa35J4Fw88PLzIvXa79fhE1lMTXlLJ4NXuTWh8QyJdPPDw8OL2siz7TELrqT0vqWTw6vDGNb4uES4eeHh40Xu3LlmyeHVC66kdL6lk8Or0xjS+KvEtHnh4ePF7R0qFZng9De8llQxe7d7oaHssy0a+HeHigYeHF7f3CynZrK+nFH+86LwVK5Yv15OAH0e2eODh4cXv7SUFWyzrKcUfLzpv6dLJVXpw/kriWjzw8PDi9k6VAi229bRxL6lk8IJ4WZat1pd/K/EsHnh4eHF77qmlHenTYl1PG/WSSgYvpLe9xp8ljsUDDw8vfu9xMk9LYD1txksqGbzQ3u7SOzOPYfHAw8OL2/uczNESWk/r95JKBs+Cd6DGrWJ/8cDDw4vbu03jbjKjGVj/4vKSSgbPivdCsb944OHhxe+9XKabofUvHi+pZPAseR8U+4sHHh5e3J77BZLF9S8qL2jneEl67gmCfxTbiwceHl7knv7tfgbXv2i8oJ3jJe09W4wvHnh4eHF7WZadZnT9M+8F7Rwvbc/dLlgP7r9aXjzw8PCi967ZaqvVk9bWvxi8oJ3jpe/p2fk7jC8eeHh4kXutVuupFtc/617QzvHS97rd7l7WFw88PLy4vSwb+arF9c+6F7RzvIXh6QF6rhhePPDw8KL37tDYUkq2GNdTn17QzvEWhqcvPUVsLx54eHjxe3fdE6BIi3U99ekllQyeWc89tOMqsb144OHhxe39Qgq2yNdTb15SyeCZ9t4lthcPPDy8+L29ZEBLZD2tx0sqGTxL3n5if/HAw8OL23uL9GkJraf+vaSSwbPoXSS2Fw88PLy4vcs0WjJHM7D+2fWSSgbPqnes2F488PDw4vcOllnNyPpn00sqGTzLnvuZzu1ie/HAw8OL2ztTZjRD6589L6lk8GLwviq2Fw88PLy4vRtk+msAg+ufLS+pZPBi8Da6J4DBxQMPDy9+b0+j658tL6lk8GLwxjSuEduLBx4eXtzeIUbXP1teUsngReFpO9344oGHhxexl+f5C62uf6a8pJLBi8Jrt9sPsLx44OHhxe3pCcDLra5/prykksGLwpua2r+jB+n/Wl088PDw4vb0BOBVVtc/U15SyeBF4+V59mariwceHl7cnp4A/Ivl9c+aF7RzvIXndTqj68To4oGHhxe3l2XZmyyvf5a8oJ3jLWhv4K2B54rYFiM8PLzGvVOkQot8Pa23WU8GLzrvNWJz8cDDw4vbO1lKtgTW09Je0M7xFry3vcZ6sbd44OHhxe29UUq0RNbT0l7QzvHwtH1f7C0eeHh4cXv/LAVbYutpKS9o53h42o4Ue4sHHh5e3N6rpUAzsP4F9YJ2joenbQuN28TW4oGHhxe3d4wMaEbWv6BeUsngRet9TWwtHnh4eHF7R0ufZmz9C+YllQxetN5zxdbigYeHF7d3uMzTDK5/drykksGLxXNfA9wudhYPPDy8uL1nyhzN6Ppnw0sqGbzYvHPFzuKBh4cXt3eozGrG1z+KP97C9bS91NDigYeHF7f3cJnRrK9/FH+8Be2Nj4/tYGjxwMPDi9u7r0y3GNY/ij/egveybOQXRhYPPDy8uL19NKJa/4J4SSWDF7WX5/nrjCweeHh4cXs7xrb+BfGSSgYvao9HBOPh4fnwsizbMrb1L4iXVDJ4UXtr164Z0Zf/IoktRnh4eM16W2yxfFls618QL6lk8FLwPiqJLUZ4eHiNerdNTe3fiXT9a9ZLKhm8FLzDJK3FCA8Pr1nviojXv2a9pJLBS8HbUtJajPDw8Jr1fhPx+hfEC9o5Ht6s9l+SzmKEh4fXoJdlIxdEvv416gXtHA9vjvZ2SWQxwsPDa9bTE4BvRL7+NeYF7RwPb572KElkMcLDw2vc+6RUaIbWv8a8oJ3j4c3TFmvcKmksRnh4eM16p0vJZmz9a8wL2jkeXp/2XUljMcLDw2vWO1lKNKPrXyNe0M7x8Pq0EySNxQgPD69Z78IL7tMAACAASURBVDVSsBle/xrxgnaOh9en3UfSWIzw8PCa9Y6QAs34+teIl1QyeOl44+NjbT24r05gMcLDw2vWe7oMaNbXv6a8pJLBS8vLsuwTCSxGeHh4zXqHSJ8Wy/oXxEsqGbyovVar9cwEFiM8PLxmvfvKPC2m9Y/ij7egvWXLlt5ND/bbJe7FCA8Pr1nvHjJHi239o/jjLXhPX/qOxL0Y4eHhNettK7NarOsfxR9voXsvkbgXIzw8vGa9zWVGi3z9q9dLKhm8FD13MN8s8S5GeHh4zXqjMt0SWP/q9ZJKBi9V70yJdzHCw8NrzrtJpltC6199XlLJ4KXqrdW4XOJbjPDw8Jr1LtUIvV7F4yWVDF7Knvtpz98krsUIDw+vWe83RtarOLykksFL3Xuqxh0Sz2KEh4fXrHeBofXKvpdUMngLwXuRxLMY4eHhNehl2ci3ja1Xtr2kksFbKN7xEsFihIeH16yXZdnnDa5X5r2gnePhlfX0QH+r9cUIDw+vWU/XhbMtrleWvaCd4+FV8aam9u/owX6a5cUIDy9R72r99/drPEPjQRoP0Xipxn+HHp+uCV+1uF5Z9YJ2joc3jLdu3d5dPeD/XWwvlnh4SXhZNnJBnufPa7fb4zJ3c//+g8D5nm91vbLoBe0cD29Yb3JySa4vnyXGFks8vES8O/Qk+7Ojo6MHFjx+t9O4JmC+Fw4a4Fwt1vVvWC9o53h4njy3I39Owi+WeHhJeVr8v1Lh+D1I45ZA+V5bdJAbWgLrX2UvaOd4eB69rsaXJaHFFw/PgHfN7rvv2q1w/B4i0zfuCpDvFkUHmdD6V8kL2jkenmfP7dCfl3QWXzy84J7GvlKtPUz/9uYA+d6ryOAMrFfBvaSSwcOT3icBX5NEFl88PAPey6Rk23D8anu0Orc0nO/Tio7PwHoV1EsqGTy86Tam8U1JY/HFwwvtfVZKtNnHr54EPMJ9EtBgvm8qMz4D65UdL6lk8Bayt0jjfIl/8cVLz7te//1cjbdpPEfjAdJ74uVmGjtq3FvjHzVeo/Fh6e3H1zQ4vtn/m79qZFKgzXf86ksPld6jepuYj6+WHZ+B9Sq8l1QyeAvey/N8UheLH0dWHEJ5n5beO71fyoyF2tD4YvWuyrLsG3mevaXVaj292+3uvmLF5oWK6eym1jZqPFr36+PUPDPLRi7Uf7u1oXz3HjS+Asevu2nQRr8O8Di+mXFZxfGVakl5SSWDhzftbbbZspW6UP7CaHGw4K3XOGz29tMCs7rdbh+kBefZWnD+Vf/7Y+p9X3qLa8z51uW5K95/pfFJ6T2r4lETE+Pb1318dLTpy4+WARe/esj36CrjmyNf90TP9TWMb3ZsWXF8hVpSXlLJ4OHN8hYvXrSNLh6/k3SKjU/v5RXmY7HGPTQeN/33b5fepwcXyDwnCIbyHca7QeNijf/UOF3jFdL7udvdNVoltl+pVsI7XOZ4XLan7fcFD+Pb0E6qYXyz45Ahxte3JeUllQwe3jyeLiC76MtXSTzFpgnvHI2RGubD/RJjBw33R0/L8+zVWZa9V+ML05/GuJOEQu8Ca9x+7qNoN46L9e9/pGM7R+OTGqdrvFn//SiNJ2kcqLGTxkSRxA0cH3UV1+ukd8MtH/kunfbqnN/XDzG+eVtyXlLJ4OH199wdym6TOIu1b+9G6d22NdR8uO/BV2rsJr0TBVdsnye9n5y9WnpXcr9H47TpeLf7Ny3OJ+kJxV3h/lv//XUax0jvY2pnPEPjUOm9C3TfO7uL6txv2XfWuJv0fiWSwv48VxvVuETq2f/u7THfOU9UPB4f3zAyH7a9pJLBwxvsuXd2sRXrOrx/NTIfeP69p0g9+99rPea7Wuq9XfB103cwtDAfdr2kksHDK+YNfHiQsWLt23PfZS8fYvv1bXjBPfdR/aXif//7jud83+95fBvl2+121hmZD7teUsng4RXzVmhcLnEU6zq8dw+5/eZteGa8ux6T7XH/uz3Ps8095rujxh11HR95nh9haD5sekklg4dX3Hu6xFGs6/D28LD9Nml4prwjpIb9T4vqYT7zdRde1nV8ONvQfNj0kkoGD6/cx6R/FPvF2rd3nqftt1HDs+Vpe0Qd+58W1bN95tvpdO5V4/Fx2dq1a0bm6L7w+KzObw37S7jO8fACee7nXpaLdR3e8wzPB54nr9vt7FnT/nf9VlutnvSZr/sJZo3Hx27Djs/i/Pr0gnaOhxfQc3cls1ysfXs353m+1PB84HnyVq1auayu/a/Vaj3eZ77tduvhPsc3K9/Dhx2fxfn15QXtHA8vpKcLxV6Gi3Ud3n9Yng88v57uK7fWtP+9vYZ8f+pxfBvt857G5ztfE17QzvHwQnpr1my9SBeM24wWa++evnN7rOX5wPPr6f5ypdSz//2ohnwP8zi+meF+7TPwOoAY59eHF7RzPLzQXpaNXGSxWNfgXbH99tsusj4feP48fem3Us/+527gU/iJhgXzdbePLvygqZLHxx4exle4xeQF7RwPL7SXZdlnDRZr757m+e4Y5gPPq3eR1Lf/bV1Dvv/icXwz4whP4/Odb3AvaOd4eKE9LYzvFGPFug5vdHT0/jHMB55X7xdS3/53nxryXSW9xyr7Pj4+62l8vvMN7iWVDB5eWU96j3Q1Vaxr8P6ybt3e3RjmA8+r9xOpb/97SE35nuFpfDNjkycZJjK/Q3tJJYOHV8H7R7FVrL17WZa9J6L5wPPnuXv317X/PbKmfO/laXyz465PLBKaX/9eUsng4Q323MJgpljX4bXb7QdHNB94/rxPS337331rzPdiD+ObHf/scXy+87XhJZUMHl4xbxsxVKxr8K5YtGiiVeP2w7PrnS717X/LZ3fmMd9Xexjf7DjfwHzY9ZJKBg+vuOe+B7tD/Bdr9+7rJo9e1fG9r+bth2fXe73Us/9dUXO+7qTc91MCb99882XLE5tfP15SyeDhlfcG3jCl5GJ0rcZSjSM9ecOcnMz7Xa3H7Ydn03um1LP/faHufHU83/V9fLTb7ccmNr/De0klg4dXzfsf8ftO6ZRpt6NxqQevavF3P6la1MD2w7Pp3VvqOfl8ed355nl+vO/jI8uyUxOb3+G9pJLBw6vmXSB+3yntNcP+gAev6snJtxvafng2vRVSz8nnurrz7XQ6B/g+PvQE4IeJze/wXlLJ4OFV874h/or/r2fZhw7pVS3+Lo5raPvh2fWuEr/739UaeRP56vguqTC+fsfHjZOTS3Jf4zMyv8N5SSWDh1fNO1v8vVP60Cx7M/F/QVPR8RXaAAbnA8+f9y3xe/J5VlP56ktvqjjGfvnu7Gt8RuZ3OC+pZPDwqnn/Jn6Kv4uNnj/uxqF/f2GA4r9eehciNrH98Ix62t7m+eTzWQ3me0CVMQ7I9zEex+c73+a9pJLBw6vmuYv2fBT/jd51bxifuxNfw8XfxSUNbj88o16e58/zWPzXL1o0sbbBfN0TB0s90rjA8fEMj+PznW/zXlLJ4OFV804UP8Xfxd1mj6/Vaj2l4eLv4pMNbj88o16n05nyePL5iwD5fqvE+IocHy/2PD7f+QbxgnaOhxfS03aSp+L/17nGNzm5ZEv11lfwqhZ/F/NeAGh9PvD8eatXr1qq+8rtPk4+8zx7c4B8P1p0fAWPj2M8j893vo17QTvHwwvtZVl2iqePSc+fb3xS8slsUm1xmxkHN7X98Gx7ur+4X6YMffI5OnrnMyWazvf9RcdX8Pg4fI4+hhmf73wb9YJ2jodnwdMTgA95+pj0A33Gd2IVc4hPJlY3tf3wbHvS+zpo2JPPW9euXbM4QL5vKzi+osfH4z2Pz3e+jXpBO8fDs+DpCcCXfXxHmuf5sX3G9+Cy3hDF/8omtx+eee9UGfLkM8vu/P4/RL5vLDK+EsfHLp7H5zvfRr2gnePhhfampvbv6MJxuY/vSAfca3xcerfmrbv4u/jPprYfXhTeq2TIk089Sf5IoHxfW2R8BY+PmzU2eTJmAvNb2QvaOR5eaK/b7e7l6+r88fGxXQaM79wy3hBfS7yrqe2HF4X3bBmi+E/vfy8NlO8rCo6vSPy0hvFF7QXtHA8vtJfn+RHiofhr3LLnnruNDRjf60p4w1yT8KKmth9eFN4hMlzxd/GgQPm+qOD4isSZNYwvai+pZPDwynr60pdl+OLvviP9ZYHxPbSoN+Q1CQfFOh94tXgHynDF38WWgfJ9ZsHxFYk31zC+qL2kksHDK+NlWbZcX75Vhiz+09+RnlVgfKuLesN8LaF/u02M84FXm3dPGa7436QxEijfJxYYX9E4qobxpeUllQweXn/v+eKh+E8vRq8tOKS7ns42wKsat+6++67dSOcDrx5vN6le/F38MlS+2h7p8fh4spH5sOkllQwe3mDvm+Kn+Lt4XMFhnVfQq/ru/zcRzwdePd62MtwnT58NlW+73X6Ix+Pj4Ubmw56XVDJ4eIO9VRq3i5/i7+LuBYd2161Nayj+7quIr0U6H3j1ee75FFWLv4u3hMp3dHT0vr6OD7XuY2Q+bHlJJYOHV8x7hvgr/u470rzg8N5QwKtU/KdPAP4t0vnAq89bItWLv4tgt8/tdjv7+jo+xsa6exiZDzteUsng4RX33LsaH8XfxQUlhvjCuoq/izzPTol0PvDq8zpSvfi7eGiofMfHx3b1dXxMTi7Zysh82PGSSgYPr7h3lvgp/i4+XHR8rVbr0XUV/+lPAP450vnAq89zn05VLf4u5vx6q4l8JyYm5r1+oUjMzDPQswxse0klg4dX3PuC+Cn+Ll5RdHzdbnfvuor/tBfqjm14hj1t6ysWf/cY627d45vPy/Ns8wJjLHJ83GhpPsx4SSWDh1fc+5b4Kf4uHl50fCtWLF9eY/F38dxyW8/MfODV6On+cVvFT56uCJzvRMFxDjo+LrU0H2a8pJLBwyvu/UD8FH8XW5cZn3rXDPCG+WTiSQ1tP7yIPN1Hbq74ydNP5/IazDcrMdZ+x8f/1DS+uL2kksHDK+5dKH6Kvyvmc94lbb7xzdd3kSgwvkc1tP3wIvJ0P7m+4idPXzSQ7y1Fx9vn+PhZjeOL10sqGTy84t4lMnzxd/GjCuM7p4Bb9eTkkIa2H15Enu4rV1f82uk0A/leXWSsA46P82ocX/Re0M7x8AJ4l8rwxd/F2RXG95GCdpXxPaKh7YcXkaf7y5VS7VOn1xjI9y+Dxlng+PhyjeOL2gvaOR5eIO+udxVDFH8Xp1YY38kl/LLj63sCYHg+8Gr0pEARnSeebSDf3/YbY8Hj4z9qHF+0XtDO8fACeufL8MXfxbEVxveqon6F8c17AmB8PvDq9f4oFU4A2u3WIw3k+6v5xlfi+PhgjeOL1gvaOR5eKE/bGz0UfxcvrjC+lxWxK47v4Ca2H1503u+k5L7t9rdOp3MvA/n+bL7xlTg+3lHj+KL1gnaOhxfKa7fbB3ko/i6eWWF8rx3kDnFyssk9CWKYD7zavT9IyeLvYmJifEcD+V4w3/hKHB9vrHF80XpBO8fDC+XtuutO47poXDVk8XfxhArj+0Q/c8hPJh7cxPbDi87b6KLXfjFzv1u+fPMVBvL94XzjK3F8HFfj+KL1gnaOhxfSy7Ls40MW/7+7e/uXHJ+7Z8C8F2R5+Frifk1tP7yovBukZPF3scMO240byPd7842vxPFxZI3ji9ZLKhk8vDJenueHyRDF3y0+7Xb7kJLj26mf5+FriQOa2n540XiLpULxd7F27Zo5b3LleXyD2nnzja9IXtPxrBrHF62XVDJ4eGW8LMtW6st3SMXiP30C8IiS43teP8/DNQn7xjofeLV5e0iF4i+9BwFlDYxvUPu2h+PjiXWNLykvqWTw8AZ7P5aKxX/6BODhJce3yU2APBZ/97d7RD4feP69vp90Ddj/ljYwvr5elo1scgLQL5954uC6xpeMl1QyeHjFvNdLxeI/fQLw0JLj2+hqbJ/F38XYWHfXyOcDz793ulQr/i62aWB8fb0sy873cHwcaGg+7HlJJYOHV9y7t1Qs/tOLUZkBri3gDfPu/+/Lli29W+TzgefXcx/hz3nRacH9b+/Q+WbZyE88fDK2r5H5sOcllQweXjmvpfFXqVb873xnUWJoTy3gVS7+GrdMTe3fiXw+8Px6U1K9+Lt4TOh89QTgV8MeH51OZy8j82HLSyoZPLxq3llSrfi7uE+J4b2ngFe1+P9dF8pfJzIfeP68D0v14u/i6ND56vh+02d8hY6PsbGx3YzMhy0vqWTw8Kp57jfCVYq/i6kSQ7ywruLfOwHIzkhkPvD8eFto3CLVi7+LeW+h21S+UvIuhnPlOzExfncD82HPSyoZPLxq3gOl+sekhT4ByPN8mf79HXUVfxfax4sSmQ88P95Gt5yuePL5eQP5Xl5gnH2Pj+lbGoeeD3teUsng4VXz7ibVPyZ9YJHxjY+P3b3O4j8duxZNePb4jM0H3vDepMZVMlzxd/FNA/leX3Cs8x4f09cA1DW+eL2kksHDq+5dIdUWy3kfvztzfJOTS7ass/jrv18pvdsMl2qG5wNvOO8EGb74uzjLQL5/KzHeeU6OS31VFzrf5rykksHDq+59R6otlo8vMr4999xtTK0bayr+Lj5bNmHj84FX3dtM41oZvvi7eHHgfLMy4+2T78NqGl/cXlLJ4OFV9LR9rOJi+ZSi41Pv/AJelcXNxZvKJGt9PvCG8ty+4OvXJncPnG+76FgH5Pus2bCn8SXhBe0cDy+0l2XZWysuls8tOj596e0FzbKL25zj6Jev9fnAq+y561lu9FT8v28g31aRsRbI97U1jS96L2jneHgWvDzPj6m4WB5TYnz/UMIts7i5GHgxYp3bD8+Gp+0dnoq/ixcbyDcfNM6C+Z5e0/ii9oJ2jodnxWu1Wk+vuFieWGJ87rvZ28v4JRbzbUNuP7zwnu4b22jc4qn435Zl2RYG8u17AlDi+DivpvFF7QXtHA/Pijc62n5wxcXy9JLjO7+oXWJxc49tnfvZ3g1tP7zwnhbs93kq/i6+YiRf98uWOR/ZXfKTjqtrGl/UXtDO8fCseO53wlJtofxUyfEdV8QtubhdEXr74YX1pqb2cxeZ/tlT8Xc3lXqOoXwvmz2+il9zbFPT+KL1gnaOh2fF0wVkjVRbLL9dcnzbS+8du6/i7+IXobcfXliv2+3u5av4u78fHx/bxVC+P589voqfdGzyi51Y5rcuL2jneHiGvKVSbbH8VYXxfbePV2Vx+1qFfEs3PLteu9061Ffx17jS2FMlvy7DHR8b4rSaxhetl1QyeHhDeO5io77vzGfH9AJ0TYXxvaiPV2Vx+3CFfEs1PNtenudHeyr+7qFS3zSW76dkuONjQ/y6pvFF6yWVDB7ekF7he47PXIRWrVq5rOT4NpdZtzcdcnE7cSae0HzgFfS0aLt9YOji7yLPs5Mt5avtHE8/bXQn+HeLcX4b85JKBg+vnPcXKblYuhgb6+5SYXxnz+dVWNyOqpjvwIYXh6cvvUU8FH8X7XbrYEv56pgu9vjrhufGOL+NeEklg4dX3vujlFwspxejKgN8dB+vbDy5Yr59G15U3lvFQ/F33/+Pj48V+3lYA/muXLnFUh3T7b4ucMyykS9HOr/1ekklg4dXzfu9lC/+dxXgMq3b7bqfbV3t6Z3NE4xsP7xw3skyfPF3/36aVGh15Ts6Ono/n79ucJ8mRDq/9XlJJYOHV937nZQv/i5eXWV8WZZ91NPi9hgj2w8vnOe+Bhq2+Lt4gKV8N1zc6O8Cx5GfRDq/9XhJJYOHN5x3lZQv/i4+VGV87XbriT4Wt1Yrf6qR7YcXznusDF/8L5He43fN5KsnyWf4Kv7Tv3D4UqTzW4+XVDJ4eNW9FVKt+Lv4bpXxrV69yn2/eeNc/RYNNx49ATjcwPbDC+u5+1hcK9WLv4tjreWr4/vNoJzK5KsnAO+MdH7r8ZJKBg+vuneQVCv+Li6vOj6Z/o1zlfj/P9vKX2lg++GF99w+/CepVvzdz1JXWsp3YmJ8u/lyKRLz5Hukr/ElsL9sdAIQfzJ4eNW9ja6irnB1/rKK43vmAHfg4pbn2YkGth+eDW9c46kaH9C4SKYfpNNnf75F45car29ofIU9fenp4rf4u3iEr/Elsb8klQweXjXP3QXwrl8AVPxp3oEVx7dlAXvQx5ofTGw+8Dx5o6PtsU5n9J7tdutxrVbrHzWerfEY3W8O0Jfd8y9Mfec/y/uQ+C3+LnYynG/zXlLJ4OFV8w6R4Yq/i5cMMb6LCvYx3/i+UDbhkuPDwwvh/Z/4Lf63aYwazrd5L6lk8PCqea6ADlP8XZw+xPjeUaSPPuP7UdmEjc8HHp57aqbP4u/iN4bzDeoF7RwPL6Dnrv6/dcji7+I7Q4zv0YP8AeP7Q5mEjc8HHp5rzxG/xd/FFw3nG8wL2jkeXkhP2ws9FP+7inDF8U1K7+PJqoubu4J7pEiy1ucDD2+6uSdc+iz+Lt5qON8gXtDO8fBCe7pYfMdD8XdxyZDju2Aut8TitlmRfK3PBx7edCv0+/+SJ+8vMJxvEC9o53h4Ib1Fiya20QXjDg/F38W5Q47vvbPNkovbLoPytT4feHjTbbn0Ht3rs/i7eJjRfIN5QTvHwwvp5Xl+lKfi736L/+ohx7fRd54VFreDBuVrfT7w8KbbI8V/8XdxD6P5BvOCdo6HF9LLsuwTPoq/+/uxse4eQ45vSoZb3J40KF/r84GHN91OEP/F38UWRvMN5gXtHA8vpKcnAF/0Ufw1fuNhfCtkuMXtZYPytT4feHjT7RPiv/jfKrNuemQo32BeUsng4ZXx3AmADF/83Z34TvcxPrVuGOKCxFMH5Wt9PvDwptvPxW/xd/F7w/kG85JKBg+vqDc1tZ87+/2zDFn8XeR5/nIf41Prf4e4JuHsfvlanw88vBntCvFb/F18z3C+drykksHDm//Md5On/xWN2QtRq9V6go/xZVn2oyGuSfhhv3ytzwce3nRz97PY6J4Ynu7TcabRfO14SSWDh9ffO0M8FP/pxegBPsanJwBfGuKahD9HPh94eK4tEv/F38XLjeZrw0sqGTy8/t5q6d09z0fxd7Gvj/HpCcC/lx3TjLhj2223mYh0PvDwNrSl4r/4uzjQaL7hvaSSwcMb7L1B/BV/Fzv4GJ++9Pay45o5vomJ8R0jnQ88vA3N3dHSd/G/dYstli8zmi/FHw+vQa8jc1xk1C8KLEYrPY3vTWXGNXt8o6OjB0U4H3h4dzXdh7u6L6/3WPzd33/Xar7BvaSSwcMb7D1F/Bb/wicABcZ3fJmxzR5fq9V6eoTzgYe3kaf78lUei7/7lc7rLOcb1EsqGTy8wd5XxW/xd7Ha0/heUXRsc40vz7NXRTgfeHgbeVmW/cBX8Z/+ZOx+lvMN6iWVDB5ef6+rcZP4Lf4utvY0vsOLjK3P+N5ZbsuVHh8eXu2evmM/0lPxv6HVaj3Xer5BvaSSwcPr77mf6/ku/i628TS+I4Yc32eLb7lK48PDq93beee7j+lLX5Ihin+Wjfx0bKy7Zwz5BvWSSgYPr7/3fPFf/F1s52l8LxtyfBcU23KVx4eH15TnfhXjPhH7tZQr/tfmef7SXXfdaTyyfMN4SSWDh9ffO0r8F38X23sa3yuHHN/lg7fcUOPDwwvh7arxKo3PafxO5j4+Lsmy7A2Tk0u2TCDfxr2gnePhNeQ9R/wX/6s1Rj2N7/ghx7deY/GgTgzNBx5eFW9CY43GLho7up8OGhtfVF7QzvHwGvQeKn6Lv4tjPI7vFA/ju2e/DozNBx4eXkAvaOd4eA177h2Dz+LvflKYexzfxz2M72nz4QbnAw8PL6AXtHM8vIY9nw8a+a7M+Ljd0/h+5mF8r58LNjofeHh4Ab2gnePhBfCukuGL/yc1xj2Pz52c3PWAoiHGd/Js2Ph84OHhBfKCdo6H17Sn7cdDFNcbNF4ivWeW+x7foTJ88XdxwkzU+nzg4eGF84J2jofXtJdl2ZkViusdGmfJrBv+eB7fR2X44u/ioJrGh4eHl5iXVDJ4eIM8bY/Rk4BvaGG9skBx/aPGezR2r3l87kC8xkPxv056TzuMZj7w8PDCeUklg4dXxtMTAfcUP3d74CdrPG9GHKyxo8z4qL/O8Wl7hIfi7+LjdYwPDw9vgXhJJYOHF4GnJyIf81D8XRwRQ754eHgGvaSSwcOLwFu9etUSLfjXeSj+f7+TNJ4vHh6eQS+pZPDwIvFardaTPBX/v3c6nX2t54uHh2fMSyoZPLyIvCzLzvZR/N3fL168aK31fPHw8Ax5SSWDhxeRt3r1qqVauG/wUfxdrFmz1RLL+eLh4RnzkkoGDy8ir9Vq/YOv4u9iq61WT1rOFw8Pz5iXVDJ4eBF57qZE4qn4u1i6dHKl5Xzx8PCMeUklg4cXibdmzdbu3v/Xiqfi70JPKLa0mi8eHp5BL6lk8PAi8fSlh4rH4j/92iZ3LLSSLx4enkEvqWTw8OLx3ix+i7+LQw3ni4eHZ81LKhk8vHi8c8Vv8XdxvOF88fDwjHpBO8fDW4DepeK3+Ls4y3C+eHh4Br2gnePhLUDPPWToNvFb/F1cbDRfPDw8g17QzvHwFqi3VPwXfxfXGs0XDw/PoBe0czy8BertIP6Lv4s/Gs0XDw/PoBe0czy8BertJ/6Lv4vvGs0XDw/PoBe0czy8BeodLP6Lv4vXGM0XDw/PoBe0czy8Beo9VfwX/xs1NroToKF88fDwDHpJJYOHF4l3pPgt/pvcA8BYvnh4eAa9pJLBw4vEe534Lf5XaCw2nC8eHl4MXlLJ4OHZ9N4t/oq/iyON54uHh2fdSyoZPDy73sfFX/H/lUbHeL54eHiWvaSSwcOz7Z0jfoq/u5vgPSPIFw8Pz6qXVDJ4eMY9bRd4KP63Su/XBObzxcPDM+ollQweXgRelmXvGqL436HxaY19YskXDw/PqJdUMnh4EXhTU/t38jw/dt6aSwAAA2xJREFUQgv/xQWL/w0aX9F4mcZ2seWLh4dn1EsqGTy8yDw9AdhVX36sxuEaJ2gco3GExrM0HqixRnpPD0wiXzw8PENeUsng4eHh4eHhFfOSSgYPDw8PDw+vMJBOMnh4eHh4eHjFkWCd4+Hh4eHh4QX1gnaOh4eHh4eH17wXtHM8PDw8PDy85r2gnePh4eHh4eGF8YJ2joeHh4eHhxfGC9o5Hh4eHh4eXhgvaOd4eHh4eHh4YbygnePh4eHh4eGF8ZJKBg8PDw8PD6+Yl1QyeHh4eHh4eBW9pJLBw8PDw8PDo/jj4eHh4eHhWeocDw8PDw8Pj+KPh4eHh4eHV7OXVDJ4eHh4eHh4xbykksHDw8PDw8Mr5iWVDB4eHh4eHl4xL6lk8PDw8PDw8Ip5SSWDh4eHh4eHVxhIJxk8PDw8PDy84kiwzvHw8PDw8PCCekE7x8PDw8PDw2veC9o5Hh4eHh4eXvNe0M7x8PDw8PDwwnhBO8fDw8PDw8ML4wXtHA8PDw8PDy+MF7RzPDw8PDw8vDBe0M7x8PDw8PDwwnhJJYOHh4eHh4dXzEsqGTw8PDw8PLyKXlLJ4OHh4eHh4VH88fDw8PDw8Cx1joeHh4eHh0fxx8PDw8PDw6vZSyoZPDw8PDw8vGJeUsng4eHh4eHhFfOSSgYPDw8PDw+vmJdUMnh4eHh4eHjFvKSSwcPDw8PDwysMpJMMHh4eHh4eXnEkWOd4eHh4eHh4Qb2gnePh4eHh4eE17wXtHA8PDw8PD695L2jneHh4eHh4eGG8oJ3j4eHh4eHhhfGCdo6Hh4eHh4cXxgvaOR4eHh4eHl4YL2jneHh4eHh4eGG8pJLBw8PDw8PDK+YllQweHh4eHh5eRS+pZPDw8PDw8PAo/nh4eHh4eHiWOsfDw8PDw8Oj+OPh4eHh4eHV7CWVDB4eHh4eHl4xL6lk8PDw8PDw8Ip5SSWDh4eHh4eHV8xLKhk8PDw8PDy8Yl5SyeDh4eHh4eEVBtJJBg8PDw8PD684EqxzPDw8PDw8vKBe0M7x8PDw8PDwmveCdo6Hh4eHh4fXvBe0czw8PDw8PLwwXtDO8fDw8PDw8MJ4QTvHw8PDw8PDC+MF7RwPDw8PDw8vjBe0czw8PDw8PLwwXlLJ4OHh4eHh4RXzkkoGDw8PDw8Pr5j3/wAtUakPdCaDFwAAAABJRU5ErkJggg==;" vertex="1" parent="1">
          <mxGeometry x="139.5" y="640" width="92" height="92" as="geometry" />
        </mxCell>
        <mxCell id="kGlO1bPiPn4Se3NQ1fFB-22" value="" style="rounded=0;whiteSpace=wrap;html=1;" vertex="1" parent="1">
          <mxGeometry x="366.5" y="300" width="211" height="96" as="geometry" />
        </mxCell>
        <mxCell id="kGlO1bPiPn4Se3NQ1fFB-23" value="&lt;h1 style=&quot;border-color: var(--border-color);&quot;&gt;&lt;font style=&quot;font-size: 20px;&quot;&gt;Node-Red&lt;/font&gt;&lt;/h1&gt;" style="text;html=1;strokeColor=none;fillColor=none;spacing=5;spacingTop=-20;whiteSpace=wrap;overflow=hidden;rounded=0;" vertex="1" parent="1">
          <mxGeometry x="477.5" y="268" width="105" height="40" as="geometry" />
        </mxCell>
        <mxCell id="kGlO1bPiPn4Se3NQ1fFB-24" value="Data analysis" style="rounded=1;whiteSpace=wrap;html=1;" vertex="1" parent="1">
          <mxGeometry x="369.5" y="349" width="100" height="44" as="geometry" />
        </mxCell>
        <mxCell id="kGlO1bPiPn4Se3NQ1fFB-25" value="Query DB" style="rounded=1;whiteSpace=wrap;html=1;" vertex="1" parent="1">
          <mxGeometry x="369.5" y="303" width="100" height="44" as="geometry" />
        </mxCell>
        <mxCell id="kGlO1bPiPn4Se3NQ1fFB-26" value="Alerts system" style="rounded=1;whiteSpace=wrap;html=1;" vertex="1" parent="1">
          <mxGeometry x="474.5" y="349" width="100" height="44" as="geometry" />
        </mxCell>
        <mxCell id="kGlO1bPiPn4Se3NQ1fFB-27" value="Package organization" style="rounded=1;whiteSpace=wrap;html=1;" vertex="1" parent="1">
          <mxGeometry x="474.5" y="303" width="100" height="44" as="geometry" />
        </mxCell>
        <mxCell id="kGlO1bPiPn4Se3NQ1fFB-28" value="" style="rounded=0;whiteSpace=wrap;html=1;" vertex="1" parent="1">
          <mxGeometry x="83" y="300" width="211" height="96" as="geometry" />
        </mxCell>
        <mxCell id="kGlO1bPiPn4Se3NQ1fFB-29" value="&lt;h1 style=&quot;border-color: var(--border-color);&quot;&gt;Grafana&lt;/h1&gt;" style="text;html=1;strokeColor=none;fillColor=none;spacing=5;spacingTop=-20;whiteSpace=wrap;overflow=hidden;rounded=0;" vertex="1" parent="1">
          <mxGeometry x="194" y="268" width="105" height="40" as="geometry" />
        </mxCell>
        <mxCell id="kGlO1bPiPn4Se3NQ1fFB-30" value="Show data" style="rounded=1;whiteSpace=wrap;html=1;" vertex="1" parent="1">
          <mxGeometry x="86" y="349" width="100" height="44" as="geometry" />
        </mxCell>
        <mxCell id="kGlO1bPiPn4Se3NQ1fFB-31" value="Query DB" style="rounded=1;whiteSpace=wrap;html=1;" vertex="1" parent="1">
          <mxGeometry x="86" y="303" width="100" height="44" as="geometry" />
        </mxCell>
        <mxCell id="kGlO1bPiPn4Se3NQ1fFB-32" value="Show gateway informations" style="rounded=1;whiteSpace=wrap;html=1;" vertex="1" parent="1">
          <mxGeometry x="191" y="349" width="100" height="44" as="geometry" />
        </mxCell>
        <mxCell id="kGlO1bPiPn4Se3NQ1fFB-33" value="Show alerts" style="rounded=1;whiteSpace=wrap;html=1;" vertex="1" parent="1">
          <mxGeometry x="191" y="303" width="100" height="44" as="geometry" />
        </mxCell>
        <mxCell id="kGlO1bPiPn4Se3NQ1fFB-34" value="" style="rounded=0;whiteSpace=wrap;html=1;" vertex="1" parent="1">
          <mxGeometry x="366.5" y="144" width="211" height="96" as="geometry" />
        </mxCell>
        <mxCell id="kGlO1bPiPn4Se3NQ1fFB-35" value="&lt;h1 style=&quot;border-color: var(--border-color);&quot;&gt;&lt;font style=&quot;font-size: 20px;&quot;&gt;Telegram&lt;/font&gt;&lt;/h1&gt;" style="text;html=1;strokeColor=none;fillColor=none;spacing=5;spacingTop=-20;whiteSpace=wrap;overflow=hidden;rounded=0;" vertex="1" parent="1">
          <mxGeometry x="486.5" y="110" width="105" height="40" as="geometry" />
        </mxCell>
        <mxCell id="kGlO1bPiPn4Se3NQ1fFB-36" value="Show last package data" style="rounded=1;whiteSpace=wrap;html=1;" vertex="1" parent="1">
          <mxGeometry x="369.5" y="193" width="100" height="44" as="geometry" />
        </mxCell>
        <mxCell id="kGlO1bPiPn4Se3NQ1fFB-37" value="Query Node-Red" style="rounded=1;whiteSpace=wrap;html=1;" vertex="1" parent="1">
          <mxGeometry x="369.5" y="147" width="100" height="44" as="geometry" />
        </mxCell>
        <mxCell id="kGlO1bPiPn4Se3NQ1fFB-39" value="Show alerts" style="rounded=1;whiteSpace=wrap;html=1;" vertex="1" parent="1">
          <mxGeometry x="474.5" y="147" width="100" height="44" as="geometry" />
        </mxCell>
      </root>
    </mxGraphModel>
  </diagram>
</mxfile>
